Coordinates
version=1
nRows=17
nColumns=40
inDegrees=yes

Units are S.I. units (second, meters, Newtons, ...)
If the header above contains a line with 'inDegrees', this indicates whether rotational values are in degrees (yes) or radians (no).

endheader
time	pelvis_tilt	pelvis_list	pelvis_rotation	pelvis_tx	pelvis_ty	pelvis_tz	hip_flexion_r	hip_adduction_r	hip_rotation_r	knee_angle_r	knee_angle_r_beta	ankle_angle_r	subtalar_angle_r	mtp_angle_r	hip_flexion_l	hip_adduction_l	hip_rotation_l	knee_angle_l	knee_angle_l_beta	ankle_angle_l	subtalar_angle_l	mtp_angle_l	lumbar_extension	lumbar_bending	lumbar_rotation	arm_flex_r	arm_add_r	arm_rot_r	elbow_flex_r	pro_sup_r	wrist_flex_r	wrist_dev_r	arm_flex_l	arm_add_l	arm_rot_l	elbow_flex_l	pro_sup_l	wrist_flex_l	wrist_dev_l
      2.40000000	      4.51113409	      5.08861766	      0.62427647	     -0.40957336	      0.84595081	     -0.79094933	     33.03918545	     -4.93919278	    -11.63087537	     65.04739885	      1.13529128	     18.49896048	      0.00000000	      0.00000000	     50.47112260	     -2.28062544	     -8.33094300	     20.70792035	      0.36142139	    -24.30689848	      0.00000000	      0.00000000	    -23.95172212	     -3.10439323	     -3.97428226	     89.90305275	     -9.50835071	     34.18818021	     51.93554218	     86.42667886	      0.00000000	      0.00000000	     89.89303748	     -4.93928311	     31.39268407	     47.85109377	     80.42814414	      0.00000000	      0.00000000
      2.40500000	      4.51005308	      5.01831775	      0.64293827	     -0.40986001	      0.84477890	     -0.79103169	     33.17240905	     -4.90379024	    -11.70506025	     65.30257257	      1.13974490	     18.72269738	      0.00000000	      0.00000000	     50.65910184	     -2.33807506	     -8.33528332	     20.88470830	      0.36450692	    -24.21421111	      0.00000000	      0.00000000	    -23.96869868	     -3.01038569	     -3.95691113	     89.90365141	     -9.40089547	     33.86613211	     51.79603511	     86.72773425	      0.00000000	      0.00000000	     89.89386537	     -4.73892479	     30.76018673	     47.48062510	     83.39307307	      0.00000000	      0.00000000
      2.41000000	      4.50639784	      4.95506473	      0.67233571	     -0.41028572	      0.84352172	     -0.79109902	     33.35664216	     -4.86700192	    -11.72440284	     65.61130935	      1.14513337	     18.88137733	      0.00000000	      0.00000000	     50.82781622	     -2.38141506	     -8.34545139	     20.98128525	      0.36619251	    -24.05782420	      0.00000000	      0.00000000	    -23.99158427	     -2.92598781	     -3.98181966	     89.90392124	     -9.32364471	     33.74993275	     51.74763162	     86.94229337	      0.00000000	      0.00000000	     89.89604420	     -4.75879872	     30.77740553	     47.50026385	     81.44842624	      0.00000000	      0.00000000
      2.41500000	      4.46398999	      4.98832505	      0.66847243	     -0.41063822	      0.84235403	     -0.79114411	     33.58146479	     -4.90767813	    -11.67195735	     65.89235454	      1.15003854	     18.96009200	      0.00000000	      0.00000000	     50.97297910	     -2.35802423	     -8.34330884	     20.96464731	      0.36590212	    -24.11449832	      0.00000000	      0.00000000	    -24.00175686	     -2.94899810	     -3.99277237	     89.90478173	     -9.29443620	     33.68925600	     51.75724641	     86.70875243	      0.00000000	      0.00000000	     89.89710007	     -4.83813813	     30.69867309	     47.68193731	     83.44972530	      0.00000000	      0.00000000
      2.42000000	      4.47845186	      5.03643851	      0.61838500	     -0.41096057	      0.84122099	     -0.79115697	     33.74252923	     -4.93479151	    -11.56722771	     66.17919277	      1.15504481	     19.20615039	      0.00000000	      0.00000000	     51.10465652	     -2.37046752	     -8.42949761	     21.07589770	      0.36784381	    -24.09730331	      0.00000000	      0.00000000	    -24.03914863	     -3.03168965	     -3.96341965	     89.90560670	     -9.30222699	     33.86829360	     51.74309143	     84.68590921	      0.00000000	      0.00000000	     89.89924089	     -4.74490236	     30.95973803	     47.62335248	     77.49671500	      0.00000000	      0.00000000
      2.42500000	      4.42368250	      4.98841519	      0.64749713	     -0.41132931	      0.83997928	     -0.79121338	     33.98049211	     -4.92454562	    -11.60517188	     66.47125199	      1.16014221	     19.19943941	      0.00000000	      0.00000000	     51.25345257	     -2.38636029	     -8.42361496	     21.00620616	      0.36662746	    -24.11701454	      0.00000000	      0.00000000	    -24.03460692	     -2.93192361	     -4.00044740	     89.90598360	     -9.16966402	     33.41084190	     51.73281447	     86.73787113	      0.00000000	      0.00000000	     89.89923620	     -4.80531604	     30.49360876	     47.64365817	     83.19887035	      0.00000000	      0.00000000
      2.43000000	      4.34760378	      4.97052964	      0.64843317	     -0.41174709	      0.83868689	     -0.79131186	     34.24041784	     -4.90111962	    -11.54527882	     66.74485286	      1.16491744	     19.33190002	      0.00000000	      0.00000000	     51.46116785	     -2.40056649	     -8.39573414	     21.02086760	      0.36688335	    -24.06480323	      0.00000000	      0.00000000	    -23.99548421	     -2.90811475	     -3.98848740	     89.90668607	     -9.11800125	     33.27175025	     51.64418619	     86.85367783	      0.00000000	      0.00000000	     89.90037397	     -4.82796440	     30.53642016	     47.83395697	     81.84569674	      0.00000000	      0.00000000
      2.43500000	      4.38641355	      5.01259958	      0.65702953	     -0.41207775	      0.83760864	     -0.79141785	     34.35373170	     -4.96807198	    -11.52564317	     67.01474865	      1.16962801	     19.55424446	      0.00000000	      0.00000000	     51.52466687	     -2.35595512	     -8.43326091	     21.03738538	      0.36717164	    -23.92807890	      0.00000000	      0.00000000	    -24.07287041	     -2.93257380	     -3.98959443	     89.90737317	     -9.12348827	     33.17639960	     51.66755085	     86.83381940	      0.00000000	      0.00000000	     89.90142162	     -4.73699737	     30.32192421	     47.75632322	     82.93002273	      0.00000000	      0.00000000
      2.44000000	      4.34123580	      4.96383147	      0.67083142	     -0.41240689	      0.83641381	     -0.79149297	     34.56815274	     -4.93139769	    -11.52114763	     67.28496137	      1.17434411	     19.60094804	      0.00000000	      0.00000000	     51.68934647	     -2.38594126	     -8.45428161	     21.03064283	      0.36705396	    -23.97918995	      0.00000000	      0.00000000	    -24.06628386	     -2.86609690	     -4.03584254	     89.90748128	     -9.00201710	     33.02608423	     51.61400379	     86.92958632	      0.00000000	      0.00000000	     89.90284873	     -4.83588290	     30.43389478	     47.85572088	     80.96302499	      0.00000000	      0.00000000
      2.44500000	      4.29030269	      4.95831287	      0.66489735	     -0.41279475	      0.83517604	     -0.79155114	     34.79972909	     -4.92466850	    -11.47218789	     67.55894390	      1.17912601	     19.72049361	      0.00000000	      0.00000000	     51.86882593	     -2.40257845	     -8.50323924	     21.05759331	      0.36752434	    -23.97592479	      0.00000000	      0.00000000	    -24.05169797	     -2.85036310	     -3.98101573	     89.90830104	     -9.04157055	     32.98393148	     51.65556115	     86.69894074	      0.00000000	      0.00000000	     89.90358194	     -4.74604290	     30.16978108	     47.78819127	     83.18797581	      0.00000000	      0.00000000
      2.45000000	      4.27725699	      4.94947384	      0.67928322	     -0.41312528	      0.83406126	     -0.79167162	     34.97202147	     -4.93484112	    -11.45004509	     67.81798945	      1.18364721	     19.81802544	      0.00000000	      0.00000000	     51.98446978	     -2.38522965	     -8.42643631	     21.05834474	      0.36753745	    -23.91713535	      0.00000000	      0.00000000	    -24.08171262	     -2.80626769	     -4.04007657	     89.90911085	     -8.89879096	     32.80348348	     51.58466971	     86.97296861	      0.00000000	      0.00000000	     89.90445606	     -4.84520734	     30.33133946	     48.04241430	     79.87410383	      0.00000000	      0.00000000
      2.45500000	      4.31166594	      4.94400241	      0.62337406	     -0.41347522	      0.83289965	     -0.79162407	     35.10568969	     -4.87523094	    -11.35307350	     68.07961529	      1.18821344	     20.00486398	      0.00000000	      0.00000000	     52.13797418	     -2.47474480	     -8.60644815	     21.28285805	      0.37145595	    -23.65894013	      0.00000000	      0.00000000	    -24.13249578	     -2.83540561	     -4.00971003	     89.91076842	     -8.91718732	     33.18436287	     51.56633232	     83.35659347	      0.00000000	      0.00000000	     89.90645201	     -4.72281835	     30.25795597	     47.81828575	     76.00432297	      0.00000000	      0.00000000
      2.46000000	      4.22323159	      4.93801338	      0.66983136	     -0.41382667	      0.83165173	     -0.79177783	     35.35406549	     -4.92354621	    -11.37954331	     68.34026987	      1.19276272	     20.10939177	      0.00000000	      0.00000000	     52.28555037	     -2.42330683	     -8.59455358	     21.12488352	      0.36869877	    -23.75221622	      0.00000000	      0.00000000	    -24.10740013	     -2.79838603	     -4.03901974	     89.91013186	     -8.84770115	     32.57923561	     51.58248791	     87.14425309	      0.00000000	      0.00000000	     89.90624469	     -4.78251984	     30.33361558	     48.15477224	     74.57499561	      0.00000000	      0.00000000
      2.46500000	      4.20792725	      4.88483354	      0.69650037	     -0.41422623	      0.83046725	     -0.79191959	     35.53440670	     -4.88184685	    -11.37523072	     68.60124641	      1.19731762	     20.21900379	      0.00000000	      0.00000000	     52.43601020	     -2.46216996	     -8.67428084	     21.17223640	      0.36952524	    -23.71535719	      0.00000000	      0.00000000	    -24.11861048	     -2.70057056	     -4.04726307	     89.91119059	     -8.76745395	     32.47421046	     51.50973592	     87.06320915	      0.00000000	      0.00000000	     89.90720482	     -4.78256312	     29.87831889	     47.99377449	     82.85955730	      0.00000000	      0.00000000
      2.47000000	      4.20356945	      4.92014904	      0.70036132	     -0.41458981	      0.82944689	     -0.79201677	     35.69936466	     -4.91982663	    -11.33049423	     68.86161425	      1.20186190	     20.31112640	      0.00000000	      0.00000000	     52.50145928	     -2.42363926	     -8.68930700	     21.09680557	      0.36820872	    -23.72293918	      0.00000000	      0.00000000	    -24.16983477	     -2.72366350	     -4.05444392	     89.91163523	     -8.76345861	     32.39157526	     51.51021331	     86.92099324	      0.00000000	      0.00000000	     89.90807325	     -4.75396337	     29.92309100	     48.10554727	     79.95285899	      0.00000000	      0.00000000
      2.47500000	      4.20447124	      4.90825796	      0.68228650	     -0.41490018	      0.82833683	     -0.79206911	     35.85418792	     -4.91457020	    -11.28932087	     69.10286140	      1.20607245	     20.48110806	      0.00000000	      0.00000000	     52.60649479	     -2.45923724	     -8.79044198	     21.13999277	      0.36896248	    -23.62020637	      0.00000000	      0.00000000	    -24.20214260	     -2.70519270	     -4.03383450	     89.91224287	     -8.75760233	     32.35439408	     51.56400231	     86.63277604	      0.00000000	      0.00000000	     89.90925300	     -4.67633531	     29.62686958	     47.93503018	     83.38099784	      0.00000000	      0.00000000
      2.48000000	      4.19161503	      4.90589010	      0.69432440	     -0.41519560	      0.82725819	     -0.79219450	     36.01019285	     -4.91235859	    -11.25015439	     69.35062794	      1.21039680	     20.62653896	      0.00000000	      0.00000000	     52.64786690	     -2.43074521	     -8.78410112	     20.96277183	      0.36586939	    -23.83520907	      0.00000000	      0.00000000	    -24.24097771	     -2.68534547	     -4.04046652	     89.91275594	     -8.82485923	     32.48064184	     51.73500156	     85.70696305	      0.00000000	      0.00000000	     89.91008071	     -4.71889134	     29.80898743	     48.17950187	     80.16573323	      0.00000000	      0.00000000
